SplineFontDB: 3.0
FontName: Amatoro
FullName: Amatoro
FamilyName: Amatoro
Weight: Medium
Copyright: Copyright (c) 2011 Barry Schwartz
UComments: "Scan 11-pt Baskerville at 6400x6400 dpi.+AAoA-Cut samples 978 pixels high; import them without scaling." 
Version: 0.1
ItalicAngle: 0
UnderlinePosition: -100
UnderlineWidth: 50
Ascent: 800
Descent: 200
LayerCount: 3
Layer: 0 0 "Back"  1
Layer: 1 0 "Fore"  0
Layer: 2 0 "backup"  0
NeedsXUIDChange: 1
XUID: [1021 658 797806517 1669643]
FSType: 8
OS2Version: 0
OS2_WeightWidthSlopeOnly: 0
OS2_UseTypoMetrics: 1
CreationTime: 1297644581
ModificationTime: 1297676696
PfmFamily: 17
TTFWeight: 500
TTFWidth: 5
LineGap: 90
VLineGap: 0
OS2TypoAscent: 0
OS2TypoAOffset: 1
OS2TypoDescent: 0
OS2TypoDOffset: 1
OS2TypoLinegap: 90
OS2WinAscent: 0
OS2WinAOffset: 1
OS2WinDescent: 0
OS2WinDOffset: 1
HheadAscent: 0
HheadAOffset: 1
HheadDescent: 0
HheadDOffset: 1
OS2Vendor: 'PfEd'
MarkAttachClasses: 1
DEI: 91125
LangName: 1033 
Encoding: UnicodeBmp
UnicodeInterp: none
NameList: Adobe Glyph List
DisplaySize: -48
AntiAlias: 1
FitToEm: 1
WinInfo: 60 12 6
BeginPrivate: 0
EndPrivate
BeginChars: 65536 53

StartChar: a
Encoding: 97 97 0
Width: 514
VWidth: 0
Flags: HWO
HStem: -12 46<140.45 259.479 399.592 449.775> 301 21G<95 138.5> 394 35<170.406 295.85>
VStem: 40 87<47.4749 139.081> 322 76<75.8508 237.994 269.814 371.597>
LayerCount: 3
Fore
SplineSet
462 66 m 0
 472 66 480 58 480 53 c 0
 480 23 446 -12 411 -12 c 0
 336 -12 330 41 316 41 c 0
 303 41 244 -16 160 -16 c 0
 88 -16 40 20 40 82 c 0
 40 171 178 229 289 266 c 0
 310 273 322 275 322 292 c 0
 322 371 294 394 232 394 c 0
 118 394 171 301 106 301 c 0
 84 301 69 314 69 343 c 0
 69 387 141 429 245 429 c 0
 325 429 398 391 398 312 c 0
 398 234 396 148 396 74 c 0
 396 49 406 34 422 34 c 0
 446 34 449 66 462 66 c 0
188 32 m 0
 248 32 322 87 322 96 c 2
 322 217 l 2
 322 230 317 238 304 238 c 0
 297 238 127 184 127 90 c 0
 127 59 159 32 188 32 c 0
EndSplineSet
EndChar

StartChar: b
Encoding: 98 98 1
Width: 522
VWidth: 0
Flags: W
HStem: -23 41<199.962 332.734> 389 34<204.154 334.859> 621 27<7.00882 52.7734>
VStem: 59 80<68.4857 346.203 364 534.036> 66 73<68.4857 346.203 364 615.928> 407 86<105.669 307.344>
LayerCount: 3
Fore
SplineSet
7 634 m 0xec
 7 640 8 648 14 648 c 0
 76 653 127 667 135 667 c 0
 139 667 145 666 145 657 c 0
 145 626 139 580 139 364 c 1
 172 393 218 423 287 423 c 0
 401 423 493 336 493 212 c 0
 493 83 405 -23 283 -23 c 0
 185 -23 154 43 138 43 c 0
 112 43 104 -18 78 -18 c 0
 62 -18 59 0 59 14 c 0xf4
 59 82 66 122 66 554 c 0
 66 600 58 621 17 621 c 0
 10 621 7 628 7 634 c 0xec
263 18 m 0
 353 18 407 99 407 202 c 0
 407 300 365 389 281 389 c 0
 202 389 139 334 139 324 c 2
 139 104 l 2
 139 81 201 18 263 18 c 0
EndSplineSet
EndChar

StartChar: c
Encoding: 99 99 2
Width: 436
VWidth: 0
Flags: W
LayerCount: 3
Fore
SplineSet
113 205 m 0
 113 94 181 27 249 27 c 0
 310 27 345 52 366 79 c 0
 377 94 384 106 391 106 c 0
 404 106 413 95 413 88 c 0
 413 82 401 67 396 61 c 0
 357 14 319 -15 228 -15 c 0
 115.033793904 -15 25.8369528282 71.7492856421 25.8369528282 204.207442092 c 0
 25.8369528282 346 124 430 240 430 c 0
 334 430 392 388 392 335 c 0
 392 310 373 299 354 299 c 0
 333 299 320 313 318 326 c 0
 314 348 302 398 245 398 c 0
 158 398 113 313 113 205 c 0
EndSplineSet
EndChar

StartChar: d
Encoding: 100 100 3
Width: 542
VWidth: 0
Flags: W
LayerCount: 3
Fore
SplineSet
382 62 m 1
 344 20 301 -14 233 -14 c 0
 102 -14 27 84 27 197 c 0
 27 322 109 424 232 424 c 0
 292 424 332 404 379 366 c 1
 379 542 378 562 377 587 c 0
 376 621 348 624 325 624 c 0
 320 624 317 626 317 636 c 0
 317 648 321 650 326 650 c 0
 387 653 436 666 443 666 c 0
 448 666 454 664 454 655 c 0
 454 616 450 244 450 85 c 0
 450 53 474 32 509 28 c 0
 513 28 517 26 517 17 c 0
 517 8 514 3 511 3 c 0
 463 0 411 -10 402 -10 c 0
 387 -10 384 7 382 62 c 1
111 196 m 0
 111 111 173 28 248 28 c 0
 333 28 379 92 379 115 c 2
 379 328 l 2
 379 339 325 383 256 383 c 0
 155 383 111 308 111 196 c 0
EndSplineSet
EndChar

StartChar: e
Encoding: 101 101 4
Width: 434
VWidth: 0
Flags: W
HStem: -15 37<190.946 322.133> 269 25<129.056 309.147> 396 29<178.389 267.858>
VStem: 27 79<112.151 266.283> 310 95<275.5 346.041>
LayerCount: 3
Fore
SplineSet
27 207 m 0
 27 334 111 425 227 425 c 0
 318 425 380 386 401 300 c 0
 403 292 405 286 405 281 c 0
 405 270 398 264 379 264 c 0
 293 264 140 269 130 269 c 0
 108 269 106 228 106 207 c 0
 106 120 159 22 258 22 c 0
 316 22 359 66 372 85 c 0
 376 91 385 102 394 98 c 0
 404 94 407 89 407 83 c 0
 407 75 400 66 394 59 c 0
 380 42 333 -15 236 -15 c 0
 105 -15 27 92 27 207 c 0
310 314 m 0
 310 342 281 396 221 396 c 0
 160 396 129 328 129 308 c 0
 129 301 132 294 141 294 c 2
 272 294 l 2
 301 294 310 296 310 314 c 0
EndSplineSet
EndChar

StartChar: f
Encoding: 102 102 6
Width: 400
VWidth: 0
Flags: W
HStem: 154 144<155 257>
VStem: 134 144<175 277>
LayerCount: 3
Fore
SplineSet
134 226 m 4
 134 266 166 298 206 298 c 4
 246 298 278 266 278 226 c 4
 278 186 246 154 206 154 c 4
 166 154 134 186 134 226 c 4
EndSplineSet
EndChar

StartChar: g
Encoding: 103 103 7
Width: 400
VWidth: 0
Flags: W
HStem: 154 144<155 257>
VStem: 134 144<175 277>
LayerCount: 3
Fore
SplineSet
134 226 m 4
 134 266 166 298 206 298 c 4
 246 298 278 266 278 226 c 4
 278 186 246 154 206 154 c 4
 166 154 134 186 134 226 c 4
EndSplineSet
EndChar

StartChar: h
Encoding: 104 104 8
Width: 400
VWidth: 0
Flags: W
HStem: 154 144<155 257>
VStem: 134 144<175 277>
LayerCount: 3
Fore
SplineSet
134 226 m 4
 134 266 166 298 206 298 c 4
 246 298 278 266 278 226 c 4
 278 186 246 154 206 154 c 4
 166 154 134 186 134 226 c 4
EndSplineSet
EndChar

StartChar: i
Encoding: 105 105 9
Width: 400
VWidth: 0
Flags: W
HStem: 154 144<155 257>
VStem: 134 144<175 277>
LayerCount: 3
Fore
SplineSet
134 226 m 4
 134 266 166 298 206 298 c 4
 246 298 278 266 278 226 c 4
 278 186 246 154 206 154 c 4
 166 154 134 186 134 226 c 4
EndSplineSet
EndChar

StartChar: j
Encoding: 106 106 10
Width: 400
VWidth: 0
Flags: W
HStem: 154 144<155 257>
VStem: 134 144<175 277>
LayerCount: 3
Fore
SplineSet
134 226 m 4
 134 266 166 298 206 298 c 4
 246 298 278 266 278 226 c 4
 278 186 246 154 206 154 c 4
 166 154 134 186 134 226 c 4
EndSplineSet
EndChar

StartChar: k
Encoding: 107 107 11
Width: 400
VWidth: 0
Flags: W
HStem: 154 144<155 257>
VStem: 134 144<175 277>
LayerCount: 3
Fore
SplineSet
134 226 m 4
 134 266 166 298 206 298 c 4
 246 298 278 266 278 226 c 4
 278 186 246 154 206 154 c 4
 166 154 134 186 134 226 c 4
EndSplineSet
EndChar

StartChar: l
Encoding: 108 108 12
Width: 400
VWidth: 0
Flags: W
HStem: 154 144<155 257>
VStem: 134 144<175 277>
LayerCount: 3
Fore
SplineSet
134 226 m 4
 134 266 166 298 206 298 c 4
 246 298 278 266 278 226 c 4
 278 186 246 154 206 154 c 4
 166 154 134 186 134 226 c 4
EndSplineSet
EndChar

StartChar: m
Encoding: 109 109 13
Width: 400
VWidth: 0
Flags: W
HStem: 154 144<155 257>
VStem: 134 144<175 277>
LayerCount: 3
Fore
SplineSet
134 226 m 4
 134 266 166 298 206 298 c 4
 246 298 278 266 278 226 c 4
 278 186 246 154 206 154 c 4
 166 154 134 186 134 226 c 4
EndSplineSet
EndChar

StartChar: n
Encoding: 110 110 14
Width: 400
VWidth: 0
Flags: W
HStem: 154 144<155 257>
VStem: 134 144<175 277>
LayerCount: 3
Fore
SplineSet
134 226 m 4
 134 266 166 298 206 298 c 4
 246 298 278 266 278 226 c 4
 278 186 246 154 206 154 c 4
 166 154 134 186 134 226 c 4
EndSplineSet
EndChar

StartChar: o
Encoding: 111 111 15
Width: 400
VWidth: 0
Flags: W
HStem: 154 144<155 257>
VStem: 134 144<175 277>
LayerCount: 3
Fore
SplineSet
134 226 m 4
 134 266 166 298 206 298 c 4
 246 298 278 266 278 226 c 4
 278 186 246 154 206 154 c 4
 166 154 134 186 134 226 c 4
EndSplineSet
EndChar

StartChar: p
Encoding: 112 112 16
Width: 400
VWidth: 0
Flags: W
HStem: 154 144<155 257>
VStem: 134 144<175 277>
LayerCount: 3
Fore
SplineSet
134 226 m 4
 134 266 166 298 206 298 c 4
 246 298 278 266 278 226 c 4
 278 186 246 154 206 154 c 4
 166 154 134 186 134 226 c 4
EndSplineSet
EndChar

StartChar: q
Encoding: 113 113 17
Width: 400
VWidth: 0
Flags: W
HStem: 154 144<155 257>
VStem: 134 144<175 277>
LayerCount: 3
Fore
SplineSet
134 226 m 4
 134 266 166 298 206 298 c 4
 246 298 278 266 278 226 c 4
 278 186 246 154 206 154 c 4
 166 154 134 186 134 226 c 4
EndSplineSet
EndChar

StartChar: r
Encoding: 114 114 18
Width: 400
VWidth: 0
Flags: W
HStem: 154 144<155 257>
VStem: 134 144<175 277>
LayerCount: 3
Fore
SplineSet
134 226 m 4
 134 266 166 298 206 298 c 4
 246 298 278 266 278 226 c 4
 278 186 246 154 206 154 c 4
 166 154 134 186 134 226 c 4
EndSplineSet
EndChar

StartChar: s
Encoding: 115 115 19
Width: 400
VWidth: 0
Flags: W
HStem: 154 144<155 257>
VStem: 134 144<175 277>
LayerCount: 3
Fore
SplineSet
134 226 m 4
 134 266 166 298 206 298 c 4
 246 298 278 266 278 226 c 4
 278 186 246 154 206 154 c 4
 166 154 134 186 134 226 c 4
EndSplineSet
EndChar

StartChar: t
Encoding: 116 116 20
Width: 400
VWidth: 0
Flags: W
HStem: 154 144<155 257>
VStem: 134 144<175 277>
LayerCount: 3
Fore
SplineSet
134 226 m 4
 134 266 166 298 206 298 c 4
 246 298 278 266 278 226 c 4
 278 186 246 154 206 154 c 4
 166 154 134 186 134 226 c 4
EndSplineSet
EndChar

StartChar: u
Encoding: 117 117 21
Width: 400
VWidth: 0
Flags: W
HStem: 154 144<155 257>
VStem: 134 144<175 277>
LayerCount: 3
Fore
SplineSet
134 226 m 4
 134 266 166 298 206 298 c 4
 246 298 278 266 278 226 c 4
 278 186 246 154 206 154 c 4
 166 154 134 186 134 226 c 4
EndSplineSet
EndChar

StartChar: v
Encoding: 118 118 22
Width: 400
VWidth: 0
Flags: W
HStem: 154 144<155 257>
VStem: 134 144<175 277>
LayerCount: 3
Fore
SplineSet
134 226 m 4
 134 266 166 298 206 298 c 4
 246 298 278 266 278 226 c 4
 278 186 246 154 206 154 c 4
 166 154 134 186 134 226 c 4
EndSplineSet
EndChar

StartChar: w
Encoding: 119 119 23
Width: 400
VWidth: 0
Flags: W
HStem: 154 144<155 257>
VStem: 134 144<175 277>
LayerCount: 3
Fore
SplineSet
134 226 m 4
 134 266 166 298 206 298 c 4
 246 298 278 266 278 226 c 4
 278 186 246 154 206 154 c 4
 166 154 134 186 134 226 c 4
EndSplineSet
EndChar

StartChar: x
Encoding: 120 120 24
Width: 400
VWidth: 0
Flags: W
HStem: 154 144<155 257>
VStem: 134 144<175 277>
LayerCount: 3
Fore
SplineSet
134 226 m 4
 134 266 166 298 206 298 c 4
 246 298 278 266 278 226 c 4
 278 186 246 154 206 154 c 4
 166 154 134 186 134 226 c 4
EndSplineSet
EndChar

StartChar: y
Encoding: 121 121 25
Width: 400
VWidth: 0
Flags: W
HStem: 154 144<155 257>
VStem: 134 144<175 277>
LayerCount: 3
Fore
SplineSet
134 226 m 4
 134 266 166 298 206 298 c 4
 246 298 278 266 278 226 c 4
 278 186 246 154 206 154 c 4
 166 154 134 186 134 226 c 4
EndSplineSet
EndChar

StartChar: z
Encoding: 122 122 26
Width: 400
VWidth: 0
Flags: W
HStem: 154 144<155 257>
VStem: 134 144<175 277>
LayerCount: 3
Fore
SplineSet
134 226 m 4
 134 266 166 298 206 298 c 4
 246 298 278 266 278 226 c 4
 278 186 246 154 206 154 c 4
 166 154 134 186 134 226 c 4
EndSplineSet
EndChar

